<?xml version="1.0" encoding="utf-8"?>
<svg version="1.1" xmlns:xlink="http://www.w3.org/1999/xlink" width="21px" height="21px" xmlns="http://www.w3.org/2000/svg">
  <defs>
    <pattern id="BGPattern" patternUnits="userSpaceOnUse" alignment="0 0" imageRepeat="None" />
    <mask fill="white" id="Clip38">
      <path d="M 15 4.5  L 19.875 4.5  C 20.1875 4.5  20.453125 4.609374999999999  20.671875 4.828125  C 20.890625 5.046874999999997  21 5.3125  21 5.625000000000001  L 21 19.875  C 21 20.1875  20.890625 20.453125  20.671875 20.671875  C 20.453125 20.890625  20.1875 21  19.875 21  L 8.625 21  C 8.3125 21  8.046875 20.890625  7.828125 20.671875  C 7.609375000000001 20.453125  7.5 20.1875  7.5 19.875  L 7.5 16.5  L 1.125 16.5  C 0.8125000000000002 16.5  0.546875 16.390625  0.328125 16.171875  C 0.109375 15.953125  0 15.6875  0 15.375000000000002  L 0 7.499999999999999  C 0 7.1875  0.078125 6.843749999999999  0.234375 6.46875  C 0.390625 6.093749999999999  0.5781250000000001 5.796874999999999  0.7968749999999999 5.578125  L 5.578125 0.7968750000000007  C 5.796875 0.5781249999999991  6.093750000000001 0.3906249999999998  6.46875 0.23437500000000033  C 6.84375 0.07812500000000089  7.1875 0  7.5 0  L 12.375 0  C 12.687500000000002 0  12.953125000000002 0.10937500000000078  13.171875000000002 0.328125  C 13.390625 0.5468749999999992  13.500000000000002 0.8124999999999994  13.500000000000002 1.1250000000000007  L 13.500000000000002 4.968750000000001  C 14.031250000000002 4.65625  14.53125 4.5  15 4.5  Z M 13.500000000000002 10.5  L 13.500000000000002 6.996093749999999  L 9.99609375 10.5  L 13.500000000000002 10.5  Z M 6 6  L 6 2.496093749999999  L 2.49609375 6  L 6 6  Z M 7.734375000000001 10.96875  C 7.890625 10.59375  8.078125 10.296875  8.296875 10.078125  L 12 6.375000000000001  L 12 1.4999999999999993  L 7.5 1.4999999999999993  L 7.5 6.375000000000001  C 7.5 6.687499999999997  7.390625000000001 6.953125  7.171875 7.171874999999999  C 6.953125000000001 7.390624999999998  6.687500000000001 7.499999999999999  6.374999999999999 7.499999999999999  L 1.5 7.499999999999999  L 1.5 15  L 7.5 15  L 7.5 12  C 7.5 11.6875  7.578125000000001 11.34375  7.734375000000001 10.96875  Z M 9 19.5  L 19.5 19.5  L 19.5 6  L 15 6  L 15 10.874999999999998  C 15 11.1875  14.890625000000002 11.453124999999998  14.671875 11.671875  C 14.453125000000002 11.890625  14.1875 12  13.875 12  L 9 12  L 9 19.5  Z " fill-rule="evenodd" />
    </mask>
  </defs>
  <g transform="matrix(1 0 0 1 -919 -679 )">
    <path d="M 15 4.5  L 19.875 4.5  C 20.1875 4.5  20.453125 4.609374999999999  20.671875 4.828125  C 20.890625 5.046874999999997  21 5.3125  21 5.625000000000001  L 21 19.875  C 21 20.1875  20.890625 20.453125  20.671875 20.671875  C 20.453125 20.890625  20.1875 21  19.875 21  L 8.625 21  C 8.3125 21  8.046875 20.890625  7.828125 20.671875  C 7.609375000000001 20.453125  7.5 20.1875  7.5 19.875  L 7.5 16.5  L 1.125 16.5  C 0.8125000000000002 16.5  0.546875 16.390625  0.328125 16.171875  C 0.109375 15.953125  0 15.6875  0 15.375000000000002  L 0 7.499999999999999  C 0 7.1875  0.078125 6.843749999999999  0.234375 6.46875  C 0.390625 6.093749999999999  0.5781250000000001 5.796874999999999  0.7968749999999999 5.578125  L 5.578125 0.7968750000000007  C 5.796875 0.5781249999999991  6.093750000000001 0.3906249999999998  6.46875 0.23437500000000033  C 6.84375 0.07812500000000089  7.1875 0  7.5 0  L 12.375 0  C 12.687500000000002 0  12.953125000000002 0.10937500000000078  13.171875000000002 0.328125  C 13.390625 0.5468749999999992  13.500000000000002 0.8124999999999994  13.500000000000002 1.1250000000000007  L 13.500000000000002 4.968750000000001  C 14.031250000000002 4.65625  14.53125 4.5  15 4.5  Z M 13.500000000000002 10.5  L 13.500000000000002 6.996093749999999  L 9.99609375 10.5  L 13.500000000000002 10.5  Z M 6 6  L 6 2.496093749999999  L 2.49609375 6  L 6 6  Z M 7.734375000000001 10.96875  C 7.890625 10.59375  8.078125 10.296875  8.296875 10.078125  L 12 6.375000000000001  L 12 1.4999999999999993  L 7.5 1.4999999999999993  L 7.5 6.375000000000001  C 7.5 6.687499999999997  7.390625000000001 6.953125  7.171875 7.171874999999999  C 6.953125000000001 7.390624999999998  6.687500000000001 7.499999999999999  6.374999999999999 7.499999999999999  L 1.5 7.499999999999999  L 1.5 15  L 7.5 15  L 7.5 12  C 7.5 11.6875  7.578125000000001 11.34375  7.734375000000001 10.96875  Z M 9 19.5  L 19.5 19.5  L 19.5 6  L 15 6  L 15 10.874999999999998  C 15 11.1875  14.890625000000002 11.453124999999998  14.671875 11.671875  C 14.453125000000002 11.890625  14.1875 12  13.875 12  L 9 12  L 9 19.5  Z " fill-rule="nonzero" fill="rgba(56, 51, 79, 1)" stroke="none" transform="matrix(1 0 0 1 919 679 )" class="fill" />
    <path d="M 15 4.5  L 19.875 4.5  C 20.1875 4.5  20.453125 4.609374999999999  20.671875 4.828125  C 20.890625 5.046874999999997  21 5.3125  21 5.625000000000001  L 21 19.875  C 21 20.1875  20.890625 20.453125  20.671875 20.671875  C 20.453125 20.890625  20.1875 21  19.875 21  L 8.625 21  C 8.3125 21  8.046875 20.890625  7.828125 20.671875  C 7.609375000000001 20.453125  7.5 20.1875  7.5 19.875  L 7.5 16.5  L 1.125 16.5  C 0.8125000000000002 16.5  0.546875 16.390625  0.328125 16.171875  C 0.109375 15.953125  0 15.6875  0 15.375000000000002  L 0 7.499999999999999  C 0 7.1875  0.078125 6.843749999999999  0.234375 6.46875  C 0.390625 6.093749999999999  0.5781250000000001 5.796874999999999  0.7968749999999999 5.578125  L 5.578125 0.7968750000000007  C 5.796875 0.5781249999999991  6.093750000000001 0.3906249999999998  6.46875 0.23437500000000033  C 6.84375 0.07812500000000089  7.1875 0  7.5 0  L 12.375 0  C 12.687500000000002 0  12.953125000000002 0.10937500000000078  13.171875000000002 0.328125  C 13.390625 0.5468749999999992  13.500000000000002 0.8124999999999994  13.500000000000002 1.1250000000000007  L 13.500000000000002 4.968750000000001  C 14.031250000000002 4.65625  14.53125 4.5  15 4.5  Z " stroke-width="0" stroke-dasharray="0" stroke="rgba(255, 255, 255, 0)" fill="none" transform="matrix(1 0 0 1 919 679 )" class="stroke" mask="url(#Clip38)" />
    <path d="M 13.500000000000002 10.5  L 13.500000000000002 6.996093749999999  L 9.99609375 10.5  L 13.500000000000002 10.5  Z " stroke-width="0" stroke-dasharray="0" stroke="rgba(255, 255, 255, 0)" fill="none" transform="matrix(1 0 0 1 919 679 )" class="stroke" mask="url(#Clip38)" />
    <path d="M 6 6  L 6 2.496093749999999  L 2.49609375 6  L 6 6  Z " stroke-width="0" stroke-dasharray="0" stroke="rgba(255, 255, 255, 0)" fill="none" transform="matrix(1 0 0 1 919 679 )" class="stroke" mask="url(#Clip38)" />
    <path d="M 7.734375000000001 10.96875  C 7.890625 10.59375  8.078125 10.296875  8.296875 10.078125  L 12 6.375000000000001  L 12 1.4999999999999993  L 7.5 1.4999999999999993  L 7.5 6.375000000000001  C 7.5 6.687499999999997  7.390625000000001 6.953125  7.171875 7.171874999999999  C 6.953125000000001 7.390624999999998  6.687500000000001 7.499999999999999  6.374999999999999 7.499999999999999  L 1.5 7.499999999999999  L 1.5 15  L 7.5 15  L 7.5 12  C 7.5 11.6875  7.578125000000001 11.34375  7.734375000000001 10.96875  Z " stroke-width="0" stroke-dasharray="0" stroke="rgba(255, 255, 255, 0)" fill="none" transform="matrix(1 0 0 1 919 679 )" class="stroke" mask="url(#Clip38)" />
    <path d="M 9 19.5  L 19.5 19.5  L 19.5 6  L 15 6  L 15 10.874999999999998  C 15 11.1875  14.890625000000002 11.453124999999998  14.671875 11.671875  C 14.453125000000002 11.890625  14.1875 12  13.875 12  L 9 12  L 9 19.5  Z " stroke-width="0" stroke-dasharray="0" stroke="rgba(255, 255, 255, 0)" fill="none" transform="matrix(1 0 0 1 919 679 )" class="stroke" mask="url(#Clip38)" />
  </g>
</svg>