<?xml version="1.0" encoding="UTF-8"?>
<svg id="Layer_1" data-name="Layer 1" xmlns="http://www.w3.org/2000/svg" viewBox="0 0 465 512">
  <defs>
    <style>
      .cls-1 {
        fill: #333f48;
      }
    </style>
  </defs>
  <path class="cls-1" d="M437.64,82.94c-25.72-8.84-46.33-29.56-55.12-55.43-5.59-16.45-21-27.5-38.33-27.5H120.82c-17.33,0-32.74,11.05-38.33,27.5-8.8,25.88-29.4,46.6-55.12,55.43C11,88.56,0,104.01,0,121.38v56.5c0,73.73,22.09,144.73,63.89,205.32,38.25,55.43,90.95,98.81,152.42,125.45,5.14,2.23,10.66,3.34,16.19,3.34s11.04-1.11,16.18-3.34c61.47-26.64,114.17-70.02,152.42-125.45,41.8-60.59,63.9-131.59,63.9-205.32v-56.5c0-17.37-11-32.82-27.36-38.45ZM435,177.89c0,67.62-20.26,132.72-58.59,188.28-35.05,50.8-83.34,90.56-139.65,114.96-2.7,1.17-5.8,1.18-8.51,0-56.31-24.4-104.6-64.16-139.65-114.96-38.33-55.55-58.59-120.66-58.59-188.28v-56.5c0-4.56,2.86-8.61,7.11-10.07,34.43-11.83,62.02-39.55,73.78-74.15,1.46-4.28,5.45-7.16,9.93-7.16h223.36c4.48,0,8.47,2.88,9.93,7.16,11.76,34.6,39.34,62.32,73.78,74.15,4.25,1.46,7.11,5.51,7.11,10.07v56.5Z"/>
  <path class="cls-1" d="M296.24,194.48h-1.02v-42.72c0-34.58-28.14-62.72-62.72-62.72s-62.72,28.14-62.72,62.72v42.72h-1.02c-19.92,0-36.12,16.21-36.12,36.12v86.33c0,37.09,30.18,67.28,67.27,67.28h65.18c37.09,0,67.27-30.18,67.27-67.28v-86.33c0-19.92-16.2-36.12-36.12-36.12ZM199.78,151.77c0-18.04,14.68-32.72,32.72-32.72s32.72,14.68,32.72,32.72v42.72h-65.44v-42.72ZM302.36,316.94c0,20.55-16.72,37.27-37.27,37.27h-65.18c-20.55,0-37.27-16.72-37.27-37.27v-86.33c0-3.38,2.75-6.12,6.12-6.12h127.48c3.38,0,6.12,2.75,6.12,6.12v86.33Z"/>
  <path class="cls-1" d="M232.5,260.18c-8.29,0-15,6.71-15,15v28.34c0,8.29,6.71,15,15,15s15-6.71,15-15v-28.34c0-8.29-6.71-15-15-15Z"/>
</svg>